<?xml version="1.0" encoding="UTF-8" standalone="no"?>
<!DOCTYPE svg PUBLIC "-//W3C//DTD SVG 1.1//EN" "http://www.w3.org/Graphics/SVG/1.1/DTD/svg11.dtd">
<svg width="100%" height="100%" viewBox="0 0 1500 1050" version="1.1" xmlns="http://www.w3.org/2000/svg" xmlns:xlink="http://www.w3.org/1999/xlink" xml:space="preserve" xmlns:serif="http://www.serif.com/" style="fill-rule:evenodd;clip-rule:evenodd;stroke-linecap:round;stroke-linejoin:round;stroke-miterlimit:1.5;">
    <g id="Face">
        <g id="Fill">
            <path id="Fill_Brown" d="M429.582,216.605C435.059,186.929 448.591,287.634 459.07,331.512C475.555,400.539 480.634,478.23 498.312,502.61C530.294,546.716 663.455,450.087 705.114,405.417C718.758,390.787 714.665,350.187 718.4,320.35C721.9,292.396 733.73,192.364 746.952,229.471C754.872,251.698 858.169,255.951 909.926,164.282C925.569,136.577 874.844,103.893 834.444,99.092C805.322,95.632 764.858,135.814 737.517,129.114C710.176,122.414 701.129,69.091 670.397,58.893C629.987,45.484 532.633,66.794 489.607,66.77C462.818,66.755 450.828,97.155 417.573,111.101C377.926,127.727 356.839,101.969 334.371,90.515C282.135,63.884 208.677,129.029 249.453,176.291C300.426,235.37 420.073,268.124 429.582,216.605Z" style="fill:rgb(137,71,19);stroke:black;stroke-width:1px;"/>
            <path id="Fill_White" d="M484.68,548.005C488.512,518.423 507.44,486.22 515.318,455.536C526.542,411.815 533.331,325.157 527.326,280.553C522.686,246.081 486.154,221.511 479.292,187.915C472.43,154.32 459.472,137.845 460.014,101.466C460.23,86.997 487.733,81.608 489.709,66.098C499.02,-6.96 648.901,-18.035 677.347,75.743C688.688,113.13 708.364,141.718 700.119,175.33C691.73,209.53 641.706,273.273 659.998,321.125C678.336,369.097 692.062,388.078 704.093,403.967C723.848,430.057 678.276,470.926 690.472,494.169C702.544,517.177 698.017,544.134 699.736,571.333C701.469,598.77 646.961,604.525 595.947,606.501C545.886,608.44 477.705,601.854 484.68,548.005Z" style="fill:white;stroke:black;stroke-width:1px;"/>
            <g id="Ears">
                <path id="Ear_Cutoff_L" d="M417.573,111.101L433.035,211.874" style="fill:none;stroke:black;stroke-width:1px;"/>
                <path id="Ear_Cutoff_R" d="M737.517,129.114L740.979,221.321" style="fill:none;stroke:black;stroke-width:1px;"/>
                <path id="Ear_Shadow_L" d="M393.004,201.003C374.164,224.684 283.168,188.716 279.78,149.537C278.804,138.241 328.363,142.535 347.543,150.395C382.457,164.702 408.647,181.341 393.004,201.003Z" style="fill-opacity:0.6;stroke:black;stroke-width:1px;"/>
                <path id="Ear_Shadow_R" d="M797.866,192.425C793.939,208.931 821.65,203.386 836.465,184.705C844.744,174.267 866.543,154.996 864.771,148.68C860.527,133.548 803.739,167.74 797.866,192.425Z" style="fill-opacity:0.6;stroke:black;stroke-width:1px;"/>
            </g>
        </g>
        <g id="Nose">
            <path id="Nose-Fill" serif:id="Nose Fill" d="M546.432,518.845C579.089,497.12 636.497,507.524 655.264,517.355C663.143,521.482 678.717,509.301 676.136,517.727C675.611,519.44 685.612,589.495 651.537,598.233C632.144,603.206 563.44,602.844 546.059,601.587C516.25,599.432 516.073,508.808 525.933,516.609C531.323,520.874 539.599,518.1 546.432,518.845" style="fill:rgb(231,124,207);stroke:black;stroke-width:1px;"/>
            <g id="Nostrils">
                <path id="Nostril_L" d="M537.114,567.298C540.905,572.432 556.988,573.848 558.732,567.298C561.274,557.746 540.664,527.124 538.605,525.182C528.303,515.46 519.917,522.607 524.442,537.108C526.704,544.358 531.845,560.16 537.114,567.298Z" style="fill:rgb(190,170,203);stroke:black;stroke-width:1px;"/>
                <path id="Nostril_R" d="M640.355,573.82C638.483,564.183 656.355,532.576 660.855,523.504C664.668,515.816 676.3,519.674 675.39,527.604C673.674,542.573 663.844,574.071 656.009,575.311C650.832,576.131 641.355,578.966 640.355,573.82Z" style="fill:rgb(190,170,203);stroke:black;stroke-width:1px;"/>
            </g>
        </g>
        <g id="Eyes">
            <g id="White">
                <path id="Eye_White_L" d="M463.168,245.853C465.142,246.176 475.049,256.905 475.141,259.853C475.233,262.8 466.649,264.458 463.721,263.537C443.113,257.052 445.736,243.004 463.168,245.853Z" style="fill:white;stroke:black;stroke-width:1px;"/>
                <path id="Eye_White_R" d="M699.601,263.581C699.714,267.014 708.961,266.269 712.84,264.156C721.011,259.706 722.986,245.272 718.136,244.239C711.626,242.853 699.214,251.923 699.601,263.581Z" style="fill:white;stroke:black;stroke-width:1px;"/>
            </g>
            <g id="Black">
                <g id="Pupil_L" transform="matrix(1,0,0,1,-0.471557,-2.88829)">
                    <circle cx="455.792" cy="254.663" r="5.812"/>
                </g>
                <g id="Pupil_R" transform="matrix(0.758245,0,0,0.758245,370.615,55.2936)">
                    <circle cx="455.792" cy="254.663" r="5.812"/>
                </g>
            </g>
        </g>
    </g>
</svg>
